<svg width="40" height="41" viewBox="0 0 40 41" fill="none" xmlns="http://www.w3.org/2000/svg">
<g clip-path="url(#clip0_85_1045)">
<path d="M28.6529 14.939C31.2252 16.7843 34.3763 17.87 37.7797 17.87V11.2976C37.1356 11.2977 36.4931 11.2303 35.863 11.0964V16.2698C32.4599 16.2698 29.3092 15.1841 26.7362 13.3389V26.7514C26.7362 33.461 21.3164 38.8998 14.631 38.8998C12.1366 38.8998 9.81807 38.143 7.89209 36.845C10.0903 39.1006 13.1558 40.4999 16.5473 40.4999C23.233 40.4999 28.6532 35.0611 28.6532 28.3512V14.939H28.6529ZM31.0173 8.30824C29.7028 6.86696 28.8397 5.00438 28.6529 2.94521V2.09985H26.8366C27.2938 4.71705 28.8532 6.95303 31.0173 8.30824ZM12.1206 31.6963C11.3861 30.7298 10.9892 29.5476 10.991 28.332C10.991 25.2633 13.47 22.7751 16.5284 22.7751C17.0984 22.775 17.665 22.8626 18.2082 23.0355V16.3162C17.5734 16.2289 16.9327 16.1918 16.2923 16.2054V21.4354C15.7487 21.2625 15.1819 21.1746 14.6117 21.1751C11.5533 21.1751 9.07445 23.663 9.07445 26.7322C9.07445 28.9022 10.3135 30.781 12.1206 31.6963Z" fill="#FF004F"/>
<path d="M26.7362 13.3388C29.3091 15.1839 32.4598 16.2697 35.8629 16.2697V11.0962C33.9633 10.6901 32.2817 9.69392 31.0173 8.30824C28.853 6.9529 27.2937 4.71692 26.8365 2.09985H22.0655V28.3509C22.0547 31.4113 19.58 33.8893 16.5281 33.8893C14.7297 33.8893 13.132 33.0289 12.1201 31.6963C10.3132 30.781 9.07411 28.9021 9.07411 26.7323C9.07411 23.6634 11.553 21.1753 14.6114 21.1753C15.1974 21.1753 15.7622 21.2668 16.292 21.4356V16.2056C9.72408 16.3417 4.44189 21.7274 4.44189 28.3511C4.44189 31.6575 5.75728 34.655 7.89216 36.8451C9.81814 38.1429 12.1366 38.8999 14.6311 38.8999C21.3166 38.8999 26.7363 33.4608 26.7363 26.7514V13.3388H26.7362Z" fill="black"/>
<path d="M35.8629 11.0963V9.69747C34.15 9.70008 32.4706 9.21865 31.0173 8.30822C32.3038 9.72177 33.9979 10.6964 35.8629 11.0963ZM26.8365 2.09997C26.7929 1.84985 26.7594 1.59808 26.7362 1.34536V0.5H20.1487V26.7514C20.1382 29.8113 17.6636 32.2893 14.6114 32.2893C13.7154 32.2893 12.8694 32.0758 12.1201 31.6965C13.132 33.0291 14.7297 33.8892 16.5281 33.8892C19.5797 33.8892 22.0549 31.4115 22.0656 28.3512V2.09997H26.8365ZM16.2923 16.2057V14.7165C15.7418 14.641 15.1869 14.6031 14.6313 14.6034C7.94525 14.6032 2.52539 20.0423 2.52539 26.7514C2.52539 30.9575 4.65549 34.6645 7.89234 36.845C5.75745 34.655 4.44207 31.6574 4.44207 28.351C4.44207 21.7275 9.72411 16.3419 16.2923 16.2057Z" fill="#00F2EA"/>
</g>
<defs>
<clipPath id="clip0_85_1045">
<rect width="40" height="40" fill="white" transform="translate(0 0.5)"/>
</clipPath>
</defs>
</svg>
