<svg width="249" height="249" viewBox="0 0 249 249" fill="none" xmlns="http://www.w3.org/2000/svg">
<path d="M10.7752 0.886108H0.88612V10.7752H10.7752V0.886108Z" fill="black"/>
<path d="M20.6643 0.886108H10.7752V10.7752H20.6643V0.886108Z" fill="black"/>
<path d="M30.5534 0.886108H20.6643V10.7752H30.5534V0.886108Z" fill="black"/>
<path d="M40.4426 0.886108H30.5534V10.7752H40.4426V0.886108Z" fill="black"/>
<path d="M50.3317 0.886108H40.4426V10.7752H50.3317V0.886108Z" fill="black"/>
<path d="M60.2208 0.886108H50.3317V10.7752H60.2208V0.886108Z" fill="black"/>
<path d="M70.1099 0.886108H60.2208V10.7752H70.1099V0.886108Z" fill="black"/>
<path d="M89.8881 0.886108H79.999V10.7752H89.8881V0.886108Z" fill="black"/>
<path d="M99.7772 0.886108H89.8881V10.7752H99.7772V0.886108Z" fill="black"/>
<path d="M139.334 0.886108H129.445V10.7752H139.334V0.886108Z" fill="black"/>
<path d="M149.223 0.886108H139.334V10.7752H149.223V0.886108Z" fill="black"/>
<path d="M159.112 0.886108H149.223V10.7752H159.112V0.886108Z" fill="black"/>
<path d="M169.001 0.886108H159.112V10.7752H169.001V0.886108Z" fill="black"/>
<path d="M188.779 0.886108H178.89V10.7752H188.779V0.886108Z" fill="black"/>
<path d="M198.668 0.886108H188.779V10.7752H198.668V0.886108Z" fill="black"/>
<path d="M208.557 0.886108H198.668V10.7752H208.557V0.886108Z" fill="black"/>
<path d="M218.447 0.886108H208.557V10.7752H218.447V0.886108Z" fill="black"/>
<path d="M228.336 0.886108H218.447V10.7752H228.336V0.886108Z" fill="black"/>
<path d="M238.225 0.886108H228.336V10.7752H238.225V0.886108Z" fill="black"/>
<path d="M248.114 0.886108H238.225V10.7752H248.114V0.886108Z" fill="black"/>
<path d="M10.7752 10.7752H0.88612V20.6643H10.7752V10.7752Z" fill="black"/>
<path d="M70.1099 10.7752H60.2208L60.2208 20.6643H70.1099V10.7752Z" fill="black"/>
<path d="M99.7772 10.7752H89.8881V20.6643H99.7772V10.7752Z" fill="black"/>
<path d="M188.779 10.7752H178.89V20.6643H188.779V10.7752Z" fill="black"/>
<path d="M248.114 10.7752H238.225V20.6643H248.114V10.7752Z" fill="black"/>
<path d="M10.7752 20.6643H0.88612V30.5534H10.7752V20.6643Z" fill="black"/>
<path d="M30.5534 20.6643H20.6643V30.5534H30.5534V20.6643Z" fill="black"/>
<path d="M40.4426 20.6643H30.5534V30.5534H40.4426V20.6643Z" fill="black"/>
<path d="M50.3317 20.6643H40.4426V30.5534H50.3317V20.6643Z" fill="black"/>
<path d="M70.1099 20.6643H60.2208V30.5534H70.1099V20.6643Z" fill="black"/>
<path d="M89.8881 20.6643H79.999V30.5534H89.8881V20.6643Z" fill="black"/>
<path d="M99.7772 20.6643H89.8881V30.5534H99.7772V20.6643Z" fill="black"/>
<path d="M119.555 20.6643H109.666V30.5534H119.555V20.6643Z" fill="black"/>
<path d="M129.445 20.6643H119.555V30.5534H129.445V20.6643Z" fill="black"/>
<path d="M139.334 20.6643H129.445V30.5534H139.334V20.6643Z" fill="black"/>
<path d="M188.779 20.6643H178.89V30.5534H188.779V20.6643Z" fill="black"/>
<path d="M208.557 20.6643H198.668V30.5534H208.557V20.6643Z" fill="black"/>
<path d="M218.447 20.6643H208.557V30.5534H218.447V20.6643Z" fill="black"/>
<path d="M228.336 20.6643H218.447V30.5534H228.336V20.6643Z" fill="black"/>
<path d="M248.114 20.6643H238.225V30.5534H248.114V20.6643Z" fill="black"/>
<path d="M10.7752 30.5534H0.88612V40.4426H10.7752V30.5534Z" fill="black"/>
<path d="M30.5534 30.5534H20.6643V40.4426H30.5534V30.5534Z" fill="black"/>
<path d="M40.4426 30.5534H30.5534V40.4426H40.4426V30.5534Z" fill="black"/>
<path d="M50.3317 30.5534H40.4426V40.4426H50.3317V30.5534Z" fill="black"/>
<path d="M70.1099 30.5534H60.2208V40.4426H70.1099V30.5534Z" fill="black"/>
<path d="M89.8881 30.5534H79.999V40.4426H89.8881V30.5534Z" fill="black"/>
<path d="M109.666 30.5534H99.7772V40.4426H109.666V30.5534Z" fill="black"/>
<path d="M129.445 30.5534H119.555V40.4426H129.445V30.5534Z" fill="black"/>
<path d="M139.334 30.5534H129.445V40.4426H139.334V30.5534Z" fill="black"/>
<path d="M159.112 30.5534H149.223V40.4426H159.112V30.5534Z" fill="black"/>
<path d="M188.779 30.5534H178.89V40.4426H188.779V30.5534Z" fill="black"/>
<path d="M208.557 30.5534H198.668V40.4426H208.557V30.5534Z" fill="black"/>
<path d="M218.447 30.5534H208.557V40.4426H218.447V30.5534Z" fill="black"/>
<path d="M228.336 30.5534H218.447V40.4426H228.336V30.5534Z" fill="black"/>
<path d="M248.114 30.5534H238.225V40.4426H248.114V30.5534Z" fill="black"/>
<path d="M10.7752 40.4426H0.88612V50.3317H10.7752V40.4426Z" fill="black"/>
<path d="M30.5534 40.4426H20.6643V50.3317H30.5534V40.4426Z" fill="black"/>
<path d="M40.4426 40.4426H30.5534V50.3317H40.4426V40.4426Z" fill="black"/>
<path d="M50.3317 40.4426H40.4426V50.3317H50.3317V40.4426Z" fill="black"/>
<path d="M70.1099 40.4426H60.2208V50.3317H70.1099V40.4426Z" fill="black"/>
<path d="M89.8881 40.4426H79.999V50.3317H89.8881V40.4426Z" fill="black"/>
<path d="M119.555 40.4426H109.666V50.3317H119.555V40.4426Z" fill="black"/>
<path d="M149.223 40.4426H139.334V50.3317H149.223L149.223 40.4426Z" fill="black"/>
<path d="M188.779 40.4426H178.89V50.3317H188.779V40.4426Z" fill="black"/>
<path d="M208.557 40.4426H198.668V50.3317H208.557V40.4426Z" fill="black"/>
<path d="M218.447 40.4426H208.557V50.3317H218.447V40.4426Z" fill="black"/>
<path d="M228.336 40.4426H218.447V50.3317H228.336V40.4426Z" fill="black"/>
<path d="M248.114 40.4426H238.225V50.3317H248.114V40.4426Z" fill="black"/>
<path d="M10.7752 50.3317H0.88612V60.2208H10.7752V50.3317Z" fill="black"/>
<path d="M70.1099 50.3317H60.2208V60.2208H70.1099V50.3317Z" fill="black"/>
<path d="M89.8881 50.3317H79.999V60.2208H89.8881V50.3317Z" fill="black"/>
<path d="M109.666 50.3317H99.7772V60.2208H109.666V50.3317Z" fill="black"/>
<path d="M119.555 50.3317H109.666V60.2208H119.555V50.3317Z" fill="black"/>
<path d="M139.334 50.3317H129.445V60.2208H139.334V50.3317Z" fill="black"/>
<path d="M159.112 50.3317H149.223L149.223 60.2208H159.112V50.3317Z" fill="black"/>
<path d="M169.001 50.3317H159.112V60.2208H169.001V50.3317Z" fill="black"/>
<path d="M188.779 50.3317H178.89V60.2208H188.779V50.3317Z" fill="black"/>
<path d="M248.114 50.3317H238.225V60.2208H248.114V50.3317Z" fill="black"/>
<path d="M10.7752 60.2208H0.88612V70.1099H10.7752V60.2208Z" fill="black"/>
<path d="M20.6643 60.2208L10.7752 60.2208V70.1099H20.6643V60.2208Z" fill="black"/>
<path d="M30.5534 60.2208H20.6643V70.1099H30.5534V60.2208Z" fill="black"/>
<path d="M40.4426 60.2208H30.5534V70.1099H40.4426V60.2208Z" fill="black"/>
<path d="M50.3317 60.2208H40.4426V70.1099H50.3317V60.2208Z" fill="black"/>
<path d="M60.2208 60.2208L50.3317 60.2208V70.1099H60.2208L60.2208 60.2208Z" fill="black"/>
<path d="M70.1099 60.2208H60.2208L60.2208 70.1099H70.1099V60.2208Z" fill="black"/>
<path d="M89.8881 60.2208H79.999V70.1099H89.8881V60.2208Z" fill="black"/>
<path d="M109.666 60.2208H99.7772V70.1099H109.666V60.2208Z" fill="black"/>
<path d="M129.445 60.2208H119.555V70.1099H129.445V60.2208Z" fill="black"/>
<path d="M149.223 60.2208H139.334V70.1099H149.223L149.223 60.2208Z" fill="black"/>
<path d="M169.001 60.2208H159.112V70.1099H169.001V60.2208Z" fill="black"/>
<path d="M188.779 60.2208H178.89V70.1099H188.779V60.2208Z" fill="black"/>
<path d="M198.668 60.2208L188.779 60.2208V70.1099H198.668V60.2208Z" fill="black"/>
<path d="M208.557 60.2208H198.668V70.1099H208.557V60.2208Z" fill="black"/>
<path d="M218.447 60.2208H208.557V70.1099H218.447V60.2208Z" fill="black"/>
<path d="M228.336 60.2208H218.447V70.1099H228.336V60.2208Z" fill="black"/>
<path d="M238.225 60.2208L228.336 60.2208V70.1099H238.225V60.2208Z" fill="black"/>
<path d="M248.114 60.2208H238.225V70.1099H248.114V60.2208Z" fill="black"/>
<path d="M139.334 70.1099H129.445V79.999H139.334V70.1099Z" fill="black"/>
<path d="M149.223 70.1099H139.334V79.999H149.223V70.1099Z" fill="black"/>
<path d="M159.112 70.1099H149.223V79.999H159.112V70.1099Z" fill="black"/>
<path d="M30.5534 79.999H20.6643V89.8881H30.5534V79.999Z" fill="black"/>
<path d="M40.4426 79.999H30.5534V89.8881H40.4426V79.999Z" fill="black"/>
<path d="M50.3317 79.999H40.4426V89.8881H50.3317V79.999Z" fill="black"/>
<path d="M60.2208 79.999H50.3317V89.8881H60.2208V79.999Z" fill="black"/>
<path d="M70.1099 79.999H60.2208V89.8881H70.1099V79.999Z" fill="black"/>
<path d="M79.999 79.999H70.1099V89.8881H79.999V79.999Z" fill="black"/>
<path d="M109.666 79.999H99.7772V89.8881H109.666V79.999Z" fill="black"/>
<path d="M129.445 79.999H119.555V89.8881H129.445V79.999Z" fill="black"/>
<path d="M149.223 79.999H139.334V89.8881H149.223V79.999Z" fill="black"/>
<path d="M159.112 79.999H149.223V89.8881H159.112V79.999Z" fill="black"/>
<path d="M169.001 79.999H159.112V89.8881H169.001V79.999Z" fill="black"/>
<path d="M178.89 79.999H169.001V89.8881H178.89V79.999Z" fill="black"/>
<path d="M198.668 79.999H188.779V89.8881H198.668V79.999Z" fill="black"/>
<path d="M208.557 79.999H198.668V89.8881H208.557V79.999Z" fill="black"/>
<path d="M218.447 79.999H208.557V89.8881H218.447V79.999Z" fill="black"/>
<path d="M228.336 79.999H218.447V89.8881H228.336V79.999Z" fill="black"/>
<path d="M248.114 79.999H238.225V89.8881H248.114V79.999Z" fill="black"/>
<path d="M20.6643 89.8881H10.7752V99.7772H20.6643V89.8881Z" fill="black"/>
<path d="M60.2208 89.8881H50.3317V99.7772H60.2208V89.8881Z" fill="black"/>
<path d="M119.555 89.8881H109.666V99.7772H119.555V89.8881Z" fill="black"/>
<path d="M139.334 89.8881H129.445V99.7772H139.334V89.8881Z" fill="black"/>
<path d="M149.223 89.8881H139.334V99.7772H149.223V89.8881Z" fill="black"/>
<path d="M198.668 89.8881H188.779V99.7772H198.668V89.8881Z" fill="black"/>
<path d="M218.447 89.8881H208.557V99.7772H218.447V89.8881Z" fill="black"/>
<path d="M238.225 89.8881H228.336V99.7772H238.225V89.8881Z" fill="black"/>
<path d="M10.7752 99.7772H0.88612V109.666H10.7752V99.7772Z" fill="black"/>
<path d="M30.5534 99.7772H20.6643V109.666H30.5534V99.7772Z" fill="black"/>
<path d="M40.4426 99.7772H30.5534V109.666H40.4426V99.7772Z" fill="black"/>
<path d="M70.1099 99.7772H60.2208L60.2208 109.666H70.1099V99.7772Z" fill="black"/>
<path d="M89.8881 99.7772H79.999V109.666H89.8881V99.7772Z" fill="black"/>
<path d="M99.7772 99.7772H89.8881V109.666H99.7772V99.7772Z" fill="black"/>
<path d="M109.666 99.7772H99.7772V109.666H109.666V99.7772Z" fill="black"/>
<path d="M178.89 99.7772H169.001V109.666H178.89V99.7772Z" fill="black"/>
<path d="M188.779 99.7772H178.89V109.666H188.779V99.7772Z" fill="black"/>
<path d="M218.447 99.7772H208.557V109.666H218.447V99.7772Z" fill="black"/>
<path d="M248.114 99.7772H238.225V109.666H248.114V99.7772Z" fill="black"/>
<path d="M10.7752 109.666H0.88612V119.555H10.7752V109.666Z" fill="black"/>
<path d="M30.5534 109.666H20.6643V119.555H30.5534V109.666Z" fill="black"/>
<path d="M50.3317 109.666H40.4426V119.555H50.3317V109.666Z" fill="black"/>
<path d="M60.2208 109.666H50.3317V119.555H60.2208L60.2208 109.666Z" fill="black"/>
<path d="M79.999 109.666H70.1099V119.555H79.999V109.666Z" fill="black"/>
<path d="M89.8881 109.666H79.999V119.555H89.8881V109.666Z" fill="black"/>
<path d="M99.7772 109.666H89.8881V119.555H99.7772V109.666Z" fill="black"/>
<path d="M109.666 109.666H99.7772V119.555H109.666V109.666Z" fill="black"/>
<path d="M129.445 109.666H119.555V119.555H129.445V109.666Z" fill="black"/>
<path d="M149.223 109.666H139.334V119.555H149.223V109.666Z" fill="black"/>
<path d="M159.112 109.666H149.223V119.555H159.112V109.666Z" fill="black"/>
<path d="M169.001 109.666H159.112V119.555H169.001V109.666Z" fill="black"/>
<path d="M228.336 109.666H218.447V119.555H228.336V109.666Z" fill="black"/>
<path d="M238.225 109.666H228.336V119.555H238.225V109.666Z" fill="black"/>
<path d="M248.114 109.666H238.225V119.555H248.114V109.666Z" fill="black"/>
<path d="M20.6643 119.555H10.7752V129.445H20.6643V119.555Z" fill="black"/>
<path d="M40.4426 119.555H30.5534V129.445H40.4426V119.555Z" fill="black"/>
<path d="M50.3317 119.555H40.4426V129.445H50.3317V119.555Z" fill="black"/>
<path d="M60.2208 119.555H50.3317V129.445H60.2208V119.555Z" fill="black"/>
<path d="M70.1099 119.555H60.2208V129.445H70.1099V119.555Z" fill="black"/>
<path d="M89.8881 119.555H79.999V129.445H89.8881V119.555Z" fill="black"/>
<path d="M99.7772 119.555H89.8881V129.445H99.7772V119.555Z" fill="black"/>
<path d="M119.555 119.555H109.666V129.445H119.555V119.555Z" fill="black"/>
<path d="M129.445 119.555H119.555V129.445H129.445V119.555Z" fill="black"/>
<path d="M149.223 119.555H139.334V129.445H149.223V119.555Z" fill="black"/>
<path d="M178.89 119.555H169.001V129.445H178.89V119.555Z" fill="black"/>
<path d="M198.668 119.555H188.779V129.445H198.668V119.555Z" fill="black"/>
<path d="M208.557 119.555H198.668V129.445H208.557V119.555Z" fill="black"/>
<path d="M228.336 119.555H218.447V129.445H228.336V119.555Z" fill="black"/>
<path d="M10.7752 129.445H0.88612V139.334H10.7752V129.445Z" fill="black"/>
<path d="M20.6643 129.445H10.7752V139.334H20.6643V129.445Z" fill="black"/>
<path d="M30.5534 129.445H20.6643V139.334H30.5534V129.445Z" fill="black"/>
<path d="M99.7772 129.445H89.8881V139.334H99.7772V129.445Z" fill="black"/>
<path d="M109.666 129.445H99.7772V139.334H109.666V129.445Z" fill="black"/>
<path d="M119.555 129.445H109.666V139.334H119.555V129.445Z" fill="black"/>
<path d="M178.89 129.445H169.001V139.334H178.89V129.445Z" fill="black"/>
<path d="M188.779 129.445H178.89V139.334H188.779V129.445Z" fill="black"/>
<path d="M198.668 129.445H188.779V139.334H198.668V129.445Z" fill="black"/>
<path d="M10.7752 139.334H0.88612V149.223H10.7752V139.334Z" fill="black"/>
<path d="M20.6643 139.334H10.7752V149.223H20.6643V139.334Z" fill="black"/>
<path d="M40.4426 139.334H30.5534V149.223H40.4426V139.334Z" fill="black"/>
<path d="M70.1099 139.334H60.2208V149.223H70.1099V139.334Z" fill="black"/>
<path d="M79.999 139.334H70.1099V149.223H79.999V139.334Z" fill="black"/>
<path d="M99.7772 139.334H89.8881V149.223H99.7772V139.334Z" fill="black"/>
<path d="M109.666 139.334H99.7772V149.223H109.666V139.334Z" fill="black"/>
<path d="M129.445 139.334H119.555V149.223H129.445V139.334Z" fill="black"/>
<path d="M159.112 139.334H149.223V149.223H159.112V139.334Z" fill="black"/>
<path d="M178.89 139.334H169.001V149.223H178.89V139.334Z" fill="black"/>
<path d="M188.779 139.334H178.89V149.223H188.779V139.334Z" fill="black"/>
<path d="M208.557 139.334H198.668V149.223H208.557V139.334Z" fill="black"/>
<path d="M238.225 139.334H228.336V149.223H238.225V139.334Z" fill="black"/>
<path d="M10.7752 149.223H0.88612V159.112H10.7752V149.223Z" fill="black"/>
<path d="M20.6643 149.223H10.7752V159.112H20.6643V149.223Z" fill="black"/>
<path d="M30.5534 149.223H20.6643V159.112H30.5534V149.223Z" fill="black"/>
<path d="M40.4426 149.223H30.5534V159.112H40.4426V149.223Z" fill="black"/>
<path d="M50.3317 149.223L40.4426 149.223V159.112H50.3317V149.223Z" fill="black"/>
<path d="M99.7772 149.223H89.8881V159.112H99.7772V149.223Z" fill="black"/>
<path d="M109.666 149.223H99.7772V159.112H109.666V149.223Z" fill="black"/>
<path d="M119.555 149.223H109.666V159.112H119.555V149.223Z" fill="black"/>
<path d="M149.223 149.223L139.334 149.223V159.112H149.223L149.223 149.223Z" fill="black"/>
<path d="M178.89 149.223H169.001V159.112H178.89V149.223Z" fill="black"/>
<path d="M208.557 149.223H198.668V159.112H208.557V149.223Z" fill="black"/>
<path d="M228.336 149.223L218.447 149.223V159.112H228.336V149.223Z" fill="black"/>
<path d="M238.225 149.223H228.336V159.112H238.225V149.223Z" fill="black"/>
<path d="M20.6643 159.112H10.7752V169.001H20.6643V159.112Z" fill="black"/>
<path d="M50.3317 159.112H40.4426V169.001H50.3317V159.112Z" fill="black"/>
<path d="M70.1099 159.112H60.2208V169.001H70.1099V159.112Z" fill="black"/>
<path d="M79.999 159.112H70.1099V169.001H79.999V159.112Z" fill="black"/>
<path d="M109.666 159.112H99.7772V169.001H109.666V159.112Z" fill="black"/>
<path d="M119.555 159.112H109.666V169.001H119.555V159.112Z" fill="black"/>
<path d="M139.334 159.112H129.445V169.001H139.334V159.112Z" fill="black"/>
<path d="M149.223 159.112H139.334V169.001H149.223V159.112Z" fill="black"/>
<path d="M159.112 159.112H149.223V169.001H159.112V159.112Z" fill="black"/>
<path d="M169.001 159.112H159.112V169.001H169.001V159.112Z" fill="black"/>
<path d="M178.89 159.112H169.001V169.001H178.89V159.112Z" fill="black"/>
<path d="M188.779 159.112H178.89V169.001H188.779V159.112Z" fill="black"/>
<path d="M198.668 159.112H188.779V169.001H198.668V159.112Z" fill="black"/>
<path d="M208.557 159.112H198.668V169.001H208.557V159.112Z" fill="black"/>
<path d="M218.447 159.112H208.557V169.001H218.447V159.112Z" fill="black"/>
<path d="M238.225 159.112H228.336V169.001H238.225V159.112Z" fill="black"/>
<path d="M119.555 169.001H109.666V178.89H119.555V169.001Z" fill="black"/>
<path d="M129.445 169.001H119.555V178.89H129.445V169.001Z" fill="black"/>
<path d="M139.334 169.001H129.445V178.89H139.334V169.001Z" fill="black"/>
<path d="M159.112 169.001H149.223L149.223 178.89H159.112V169.001Z" fill="black"/>
<path d="M169.001 169.001H159.112V178.89H169.001V169.001Z" fill="black"/>
<path d="M208.557 169.001H198.668V178.89H208.557V169.001Z" fill="black"/>
<path d="M238.225 169.001H228.336V178.89H238.225V169.001Z" fill="black"/>
<path d="M10.7752 178.89H0.88612V188.779H10.7752V178.89Z" fill="black"/>
<path d="M20.6643 178.89H10.7752V188.779H20.6643V178.89Z" fill="black"/>
<path d="M30.5534 178.89H20.6643V188.779H30.5534V178.89Z" fill="black"/>
<path d="M40.4426 178.89H30.5534V188.779H40.4426V178.89Z" fill="black"/>
<path d="M50.3317 178.89H40.4426V188.779H50.3317V178.89Z" fill="black"/>
<path d="M60.2208 178.89H50.3317V188.779H60.2208V178.89Z" fill="black"/>
<path d="M70.1099 178.89H60.2208V188.779H70.1099V178.89Z" fill="black"/>
<path d="M89.8881 178.89H79.999V188.779H89.8881V178.89Z" fill="black"/>
<path d="M119.555 178.89H109.666V188.779H119.555V178.89Z" fill="black"/>
<path d="M129.445 178.89H119.555V188.779H129.445V178.89Z" fill="black"/>
<path d="M149.223 178.89H139.334V188.779H149.223L149.223 178.89Z" fill="black"/>
<path d="M169.001 178.89H159.112V188.779H169.001V178.89Z" fill="black"/>
<path d="M188.779 178.89H178.89V188.779H188.779V178.89Z" fill="black"/>
<path d="M208.557 178.89H198.668V188.779H208.557V178.89Z" fill="black"/>
<path d="M218.447 178.89H208.557V188.779H218.447V178.89Z" fill="black"/>
<path d="M10.7752 188.779H0.88612V198.668H10.7752V188.779Z" fill="black"/>
<path d="M70.1099 188.779H60.2208L60.2208 198.668H70.1099V188.779Z" fill="black"/>
<path d="M89.8881 188.779H79.999V198.668H89.8881V188.779Z" fill="black"/>
<path d="M99.7772 188.779H89.8881V198.668H99.7772V188.779Z" fill="black"/>
<path d="M129.445 188.779H119.555V198.668H129.445V188.779Z" fill="black"/>
<path d="M139.334 188.779H129.445V198.668H139.334V188.779Z" fill="black"/>
<path d="M149.223 188.779H139.334V198.668H149.223V188.779Z" fill="black"/>
<path d="M169.001 188.779H159.112V198.668H169.001V188.779Z" fill="black"/>
<path d="M208.557 188.779H198.668V198.668H208.557V188.779Z" fill="black"/>
<path d="M228.336 188.779H218.447V198.668H228.336V188.779Z" fill="black"/>
<path d="M248.114 188.779H238.225V198.668H248.114V188.779Z" fill="black"/>
<path d="M10.7752 198.668H0.88612V208.557H10.7752V198.668Z" fill="black"/>
<path d="M30.5534 198.668H20.6643V208.557H30.5534V198.668Z" fill="black"/>
<path d="M40.4426 198.668H30.5534V208.557H40.4426V198.668Z" fill="black"/>
<path d="M50.3317 198.668H40.4426V208.557H50.3317V198.668Z" fill="black"/>
<path d="M70.1099 198.668H60.2208V208.557H70.1099V198.668Z" fill="black"/>
<path d="M89.8881 198.668H79.999V208.557H89.8881V198.668Z" fill="black"/>
<path d="M109.666 198.668H99.7772V208.557H109.666V198.668Z" fill="black"/>
<path d="M129.445 198.668H119.555V208.557H129.445V198.668Z" fill="black"/>
<path d="M169.001 198.668H159.112V208.557H169.001V198.668Z" fill="black"/>
<path d="M178.89 198.668H169.001V208.557H178.89V198.668Z" fill="black"/>
<path d="M188.779 198.668H178.89V208.557H188.779V198.668Z" fill="black"/>
<path d="M198.668 198.668H188.779V208.557H198.668V198.668Z" fill="black"/>
<path d="M208.557 198.668H198.668V208.557H208.557V198.668Z" fill="black"/>
<path d="M218.447 198.668H208.557V208.557H218.447V198.668Z" fill="black"/>
<path d="M238.225 198.668H228.336V208.557H238.225V198.668Z" fill="black"/>
<path d="M10.7752 208.557H0.88612V218.447H10.7752V208.557Z" fill="black"/>
<path d="M30.5534 208.557H20.6643V218.447H30.5534V208.557Z" fill="black"/>
<path d="M40.4426 208.557H30.5534V218.447H40.4426V208.557Z" fill="black"/>
<path d="M50.3317 208.557H40.4426V218.447H50.3317V208.557Z" fill="black"/>
<path d="M70.1099 208.557H60.2208V218.447H70.1099V208.557Z" fill="black"/>
<path d="M89.8881 208.557H79.999V218.447H89.8881V208.557Z" fill="black"/>
<path d="M99.7772 208.557H89.8881V218.447H99.7772V208.557Z" fill="black"/>
<path d="M129.445 208.557H119.555V218.447H129.445V208.557Z" fill="black"/>
<path d="M149.223 208.557H139.334V218.447H149.223V208.557Z" fill="black"/>
<path d="M169.001 208.557H159.112V218.447H169.001V208.557Z" fill="black"/>
<path d="M188.779 208.557H178.89V218.447H188.779V208.557Z" fill="black"/>
<path d="M208.557 208.557H198.668V218.447H208.557V208.557Z" fill="black"/>
<path d="M218.447 208.557H208.557V218.447H218.447V208.557Z" fill="black"/>
<path d="M248.114 208.557H238.225V218.447H248.114V208.557Z" fill="black"/>
<path d="M10.7752 218.447H0.88612V228.336H10.7752V218.447Z" fill="black"/>
<path d="M30.5534 218.447H20.6643V228.336H30.5534V218.447Z" fill="black"/>
<path d="M40.4426 218.447H30.5534V228.336H40.4426V218.447Z" fill="black"/>
<path d="M50.3317 218.447H40.4426V228.336H50.3317V218.447Z" fill="black"/>
<path d="M70.1099 218.447H60.2208V228.336H70.1099V218.447Z" fill="black"/>
<path d="M89.8881 218.447H79.999V228.336H89.8881V218.447Z" fill="black"/>
<path d="M129.445 218.447H119.555V228.336H129.445V218.447Z" fill="black"/>
<path d="M139.334 218.447H129.445V228.336H139.334V218.447Z" fill="black"/>
<path d="M149.223 218.447H139.334V228.336H149.223V218.447Z" fill="black"/>
<path d="M169.001 218.447H159.112V228.336H169.001V218.447Z" fill="black"/>
<path d="M208.557 218.447H198.668V228.336H208.557V218.447Z" fill="black"/>
<path d="M248.114 218.447H238.225V228.336H248.114V218.447Z" fill="black"/>
<path d="M10.7752 228.336H0.88612V238.225H10.7752V228.336Z" fill="black"/>
<path d="M70.1099 228.336H60.2208V238.225H70.1099V228.336Z" fill="black"/>
<path d="M109.666 228.336H99.7772V238.225H109.666V228.336Z" fill="black"/>
<path d="M129.445 228.336H119.555V238.225H129.445V228.336Z" fill="black"/>
<path d="M149.223 228.336H139.334V238.225H149.223V228.336Z" fill="black"/>
<path d="M159.112 228.336H149.223V238.225H159.112V228.336Z" fill="black"/>
<path d="M188.779 228.336H178.89V238.225H188.779V228.336Z" fill="black"/>
<path d="M198.668 228.336H188.779V238.225H198.668V228.336Z" fill="black"/>
<path d="M208.557 228.336H198.668V238.225H208.557V228.336Z" fill="black"/>
<path d="M248.114 228.336H238.225V238.225H248.114V228.336Z" fill="black"/>
<path d="M10.7752 238.225H0.88612V248.114H10.7752V238.225Z" fill="black"/>
<path d="M20.6643 238.225H10.7752V248.114H20.6643V238.225Z" fill="black"/>
<path d="M30.5534 238.225H20.6643V248.114H30.5534V238.225Z" fill="black"/>
<path d="M40.4426 238.225H30.5534V248.114H40.4426V238.225Z" fill="black"/>
<path d="M50.3317 238.225H40.4426V248.114H50.3317V238.225Z" fill="black"/>
<path d="M60.2208 238.225H50.3317V248.114H60.2208L60.2208 238.225Z" fill="black"/>
<path d="M70.1099 238.225H60.2208L60.2208 248.114H70.1099V238.225Z" fill="black"/>
<path d="M109.666 238.225H99.7772V248.114H109.666V238.225Z" fill="black"/>
<path d="M149.223 238.225H139.334V248.114H149.223V238.225Z" fill="black"/>
<path d="M159.112 238.225H149.223V248.114H159.112V238.225Z" fill="black"/>
<path d="M169.001 238.225H159.112V248.114H169.001V238.225Z" fill="black"/>
<path d="M188.779 238.225H178.89V248.114H188.779V238.225Z" fill="black"/>
<path d="M218.447 238.225H208.557V248.114H218.447V238.225Z" fill="black"/>
<path d="M228.336 238.225H218.447V248.114H228.336V238.225Z" fill="black"/>
<path d="M238.225 238.225H228.336V248.114H238.225V238.225Z" fill="black"/>
<path d="M248.114 238.225H238.225V248.114H248.114V238.225Z" fill="black"/>
</svg>
