<svg width="375" height="461" viewBox="0 0 375 461" fill="none" xmlns="http://www.w3.org/2000/svg">
<path fill-rule="evenodd" clip-rule="evenodd" d="M0 113V126.603V283V288.5V461H1125V288.5V283V0.911377L1094.06 18.8857C1093.39 19.2622 1092.71 19.6466 1092.02 20.0383C1059.59 38.345 998.997 72.5575 937.5 60.8257C914.16 56.3731 891.873 49.4387 869.513 42.4818C831.698 30.7161 793.675 18.8857 750 18.8859C705.393 23.1408 661.258 42.504 616.925 61.9545C598.832 69.8926 580.705 77.8453 562.5 84.7914C497.5 102.5 437.812 91.4831 375 79.5002C362.606 77.1357 349.827 74.439 336.768 71.683C283.645 60.4723 225.885 48.2828 170.5 53.5C101.5 59.9998 0 113 0 113Z" fill="#F8F8F8"/>
</svg>
