<svg width="375" height="288" viewBox="0 0 375 288" fill="none" xmlns="http://www.w3.org/2000/svg">
<path d="M337.961 139.822C322.955 178.412 286.158 175.624 251.787 187.424C223.786 197.038 201.684 225.018 146.259 219.743C90.8351 214.467 45.3712 161.491 60.7486 102.789C76.126 44.0863 141.432 10.3496 221.554 47.1591C301.676 83.9686 352.966 101.233 337.961 139.822Z" fill="url(#paint0_linear_1_4979)" fill-opacity="0.1"/>
<ellipse cx="252.411" cy="234.698" rx="60.6282" ry="4.58907" fill="#F3F3F3"/>
<rect x="189.659" y="20.6237" width="106.478" height="168.723" rx="18.0861" fill="#B2C3FF"/>
<rect x="188.159" y="18.7129" width="106.478" height="168.723" rx="18.0861" fill="url(#paint1_linear_1_4979)"/>
<ellipse cx="241.398" cy="103.356" rx="37.6568" ry="40.9111" fill="white"/>
<path d="M236.204 99.1243C236.204 103.559 230.49 105.614 228.672 106.178C230.923 108.247 236.775 112.385 242.177 112.385C247.579 112.385 251.699 108.247 253.084 106.178C251.439 105.143 247.371 102.284 247.371 99.1243V92.6349H236.204V99.1243Z" fill="#FCD8E3"/>
<path d="M214.389 118.451V131.853C214.389 131.853 222.18 143.985 242.436 143.985C262.693 143.985 267.628 131.853 267.628 131.853C268.147 126.775 268.874 123.417 267.628 118.451C266.381 113.485 255.353 105.839 250.246 103.582C249.034 105.651 245.435 108.826 240.657 108.826C235.878 108.826 234.667 105.651 233.542 103.582C233.542 103.582 214.389 113.034 214.389 118.451Z" fill="#B2C3FF"/>
<path d="M230.784 72.7737C230.208 66.315 235.296 60.7525 241.78 60.7525C248.175 60.7525 253.232 66.1687 252.793 72.5483L251.627 89.5295C251.278 94.614 247.051 98.56 241.955 98.56C236.935 98.56 232.745 94.7277 232.298 89.7275L230.784 72.7737Z" fill="#FCD8E3"/>
<path d="M232.048 85.8635C230.923 83.5122 228.672 73.0541 229.711 68.0883C231.01 61.8811 245.033 57.6489 244.254 54.2632C247.111 55.6739 253.084 62.5583 253.084 70.9098C253.084 78.9834 252.308 81.6568 251.956 83.6285C251.915 84.2612 251.856 84.8277 251.786 85.2992C251.786 84.7237 251.852 84.2062 251.956 83.6285C252.214 79.592 251.723 72.8611 248.669 70.9098C244.254 68.0883 239.06 67.3314 234.386 70.9098C230.75 73.693 231.356 83.5765 232.048 85.8635Z" fill="#F9759C"/>
<rect x="208.935" y="47.4917" width="2.59702" height="12.9787" fill="#D84AA8"/>
<rect x="208.935" y="50.3131" width="2.82145" height="11.9463" transform="rotate(-90 208.935 50.3131)" fill="#D84AA8"/>
<rect width="2.59702" height="12.9787" transform="matrix(-1 0 0 1 274.38 47.4917)" fill="#D84AA8"/>
<rect width="2.82145" height="11.9463" transform="matrix(6.66758e-08 -1 -1 -2.86564e-08 274.38 50.3131)" fill="#D84AA8"/>
<rect width="2.59702" height="14.1073" transform="matrix(1 0 0 -1 208.935 152.45)" fill="#D84AA8"/>
<rect width="3.0668" height="11.9463" transform="matrix(-6.13418e-08 1 1 3.11482e-08 208.935 149.383)" fill="#D84AA8"/>
<rect x="274.38" y="152.45" width="2.59702" height="14.1073" transform="rotate(180 274.38 152.45)" fill="#D84AA8"/>
<rect x="274.38" y="149.383" width="3.0668" height="11.9463" transform="rotate(90 274.38 149.383)" fill="#D84AA8"/>
<rect x="222.439" y="160.35" width="37.9165" height="3.95003" rx="1.97502" fill="#D2D9F1"/>
<rect x="211.012" y="168.814" width="60.7703" height="3.95003" rx="1.97502" fill="#D2D9F1"/>
<rect x="195.43" y="24.3558" width="17.6597" height="15.2358" rx="3.61722" fill="#ABB8E7"/>
<rect x="205.299" y="28.8701" width="8.31047" height="5.64291" rx="0.904306" fill="#DBE1F4"/>
<ellipse cx="294.277" cy="19.6674" rx="17.4996" ry="19.6674" fill="#6386FF"/>
<path fill-rule="evenodd" clip-rule="evenodd" d="M303.932 15.054L292.378 28.19L285.829 20.744L287.538 18.8016L292.378 24.3053L302.224 13.1116L303.932 15.054Z" fill="white"/>
<ellipse cx="150.024" cy="272.916" rx="52.2763" ry="7.23049" fill="#F3F3F3"/>
<path d="M131.216 268.088V257.499L131.917 252.761L137.529 253.118L134.767 268.088H131.216Z" fill="#FCD8E3"/>
<path d="M163.35 264.366L161.913 249.826L168.194 249.184L167.886 263.903L163.35 264.366Z" fill="#FCD8E3"/>
<path d="M130.514 273.078C130.514 267.375 131.216 261.672 131.216 261.672C132.268 262.385 134.372 262.385 135.775 261.672C135.775 264.167 136.476 267.732 137.879 268.444L137.879 268.444C139.282 269.157 139.282 269.157 139.282 270.583C139.282 272.009 136.827 273.078 136.827 273.078H130.514Z" fill="#6885EF"/>
<path d="M176.643 269.078C172.785 270.147 166.589 270.028 162.615 269.791L162.841 259.05C165.771 259.763 167.875 258.694 167.875 259.05C167.875 259.406 168.927 265.513 173.136 266.583C176.503 267.438 176.76 268.603 176.643 269.078Z" fill="#6885EF"/>
<path d="M144.894 224.247C144.894 226.813 139.048 248.311 136.126 258.885C133.881 259.74 131.333 259.241 130.514 258.885L134.723 224.247C134.021 215.692 136.126 188.39 136.126 184.683C136.126 180.976 137.529 173.871 137.529 170.782H163.832C164.884 184.683 172.605 216.241 172.605 219.947C172.605 223.654 168.927 256.205 168.927 256.205C168.927 256.205 163.316 256.799 161.913 256.205C161.913 254.423 162.312 233.514 160.676 224.247L148.751 202.148C147.933 207.851 144.894 221.681 144.894 224.247Z" fill="#3C56C6"/>
<path d="M191.641 129.371C190.519 131.937 190.472 135.668 190.589 137.213C191.525 138.163 193.395 139.85 193.395 138.995C193.395 137.925 196.551 137.213 197.604 134.361C198.445 132.08 202.514 126.52 199.708 124.381C198.656 122.599 193.044 126.163 191.641 129.371Z" fill="#FCD8E3"/>
<path d="M125.209 188.885C125.086 186.068 126.002 183.086 125.221 181.735C123.971 181.28 124.507 180.438 122.424 181.31C122.022 181.479 119.654 184.998 119.965 188.043C120.213 190.479 119.311 193.826 122.751 194.545C124.483 194.587 125.362 192.406 125.209 188.885Z" fill="#FCD8E3"/>
<path d="M161.377 158.307C161.938 159.733 171.899 175.772 176.809 183.614L178.791 182.378L162.78 155.812C162.079 156.049 160.816 156.881 161.377 158.307Z" fill="#4066EA"/>
<path d="M145.595 118.03C145.595 120.311 144.777 125.753 143.841 126.584C144.777 128.01 147.278 130.862 149.804 130.862C152.96 130.862 156.116 127.654 154.714 126.584C153.591 125.729 153.777 119.456 153.426 118.03C151.556 117.08 145.595 115.749 145.595 118.03Z" fill="#FCD8E3"/>
<path d="M153.964 120.415L150.509 121.175C148.517 121.46 142.779 113.13 142.194 108.312C141.61 103.493 141.651 98.2587 151.609 96.8334C161.567 95.4081 157.85 116.263 157.381 117.965C157.006 119.326 154.947 120.165 153.964 120.415Z" fill="#FCD8E3"/>
<path d="M136.629 105.066C137.11 109.6 143.058 115.779 144.677 117.739C146.532 118.594 149.208 117.2 149.208 117.2C149.896 115.923 149.901 110.85 150.125 109.2C150.522 106.284 152.691 102.426 155.183 100.31C160.04 96.1853 154.634 88.4592 154.384 86.0978C152.17 88.5131 150.926 90.0957 144.304 90.8831C136.636 91.7948 136.029 99.399 136.629 105.066Z" fill="#F9759C"/>
<path d="M123.543 156.552L120.947 182.579H125.574C126.824 177.149 130.945 165.265 131.474 162.584C132.003 159.903 136.317 151.85 137.529 148.834C137.529 150.398 138.621 156.95 138.621 161.775C138.621 167.807 136.339 173.463 136.339 177.149C136.339 180.835 140.51 183.563 146.128 183.563C151.746 183.563 164.573 179.857 164.573 177.176V163.646V148.834C167.327 153.973 170.871 157.419 175.101 157.419C179.331 157.419 191.317 146.965 194.181 138.029L190.546 136.689L175.101 146.696C171.576 140.888 165.589 128.936 162.416 127.596C158.45 125.92 155.831 126.255 154.509 126.255C153.187 126.255 153.518 129.271 149.222 129.271C144.925 129.271 144.925 126.255 143.934 126.255C143.141 126.255 138.621 127.596 135.647 129.271C132.672 130.947 123.543 156.552 123.543 156.552Z" fill="#B2C3FF"/>
<path d="M171.367 187.496L169.794 188.96C166.28 186.044 157.314 172.668 150.333 157.339C145.611 146.97 141.981 135.705 139.633 127.496C139.75 127.256 140.001 127.214 141.053 126.855C142.105 126.495 142.672 126.298 142.789 126.418C143.491 130.012 144.624 138.88 152.96 155.892C159.613 169.468 168.912 184.141 171.367 187.496Z" fill="#6885EF"/>
<path d="M171.197 187.178L169.093 187.891L172.249 212.841L182.069 210.702L177.51 198.94L179.264 197.514L171.197 187.178Z" fill="#4066EA"/>
<path d="M171.197 187.178L178.913 182.188L186.629 190.742L185.665 191.628L189.785 199.653L182.069 210.702L177.51 198.94L179.264 197.514L171.197 187.178Z" fill="#6885EF"/>
<path d="M67.8275 251.525C44.0574 244.589 40.6067 236.254 27.935 236.254C33.4921 229.891 68.3698 217.395 84.8737 240.708C101.378 264.021 98.3562 271.911 98.3562 271.911C98.3562 271.911 89.1711 257.753 67.8275 251.525Z" fill="#FEC6D7"/>
<path d="M60.3505 225.52C17.9726 195.691 23.8499 142.917 23.8499 142.917C33.1297 182.251 84.8391 182.029 98.0068 215.269C111.175 248.508 98.0068 272.213 98.0068 272.213C98.0068 272.213 102.728 255.349 60.3505 225.52Z" fill="#6386FF"/>
<path d="M320.615 170.689C308.403 190.303 309.438 222.233 311.482 235.746C317.028 220.272 324.046 198.566 338.638 184.007C355.338 167.345 364.424 147.492 369.93 129.692C364.62 142.592 335.88 146.171 320.615 170.689Z" fill="#F1F5FE"/>
<path d="M323.231 144.487C311.019 164.102 312.055 196.031 314.099 209.544C319.644 194.071 326.663 172.365 341.254 157.806C357.954 141.143 365.041 117.883 365.572 99.2593C359.863 101.697 338.496 119.969 323.231 144.487Z" fill="white"/>
<path d="M312.988 149.73C302.565 180.95 307.585 220.695 311.397 236.665C315.322 214.201 325.664 179.715 336.081 158.642C349.045 132.417 356.184 97.2521 359.78 71.8733C355.786 90.9647 326.016 110.704 312.988 149.73Z" fill="white"/>
<defs>
<linearGradient id="paint0_linear_1_4979" x1="213.864" y1="40.6123" x2="176.738" y2="226.349" gradientUnits="userSpaceOnUse">
<stop stop-color="#FEC6D7"/>
<stop offset="1" stop-color="#6386FF"/>
</linearGradient>
<linearGradient id="paint1_linear_1_4979" x1="241.398" y1="18.7129" x2="241.398" y2="187.436" gradientUnits="userSpaceOnUse">
<stop stop-color="#D8E1FF"/>
<stop offset="1" stop-color="#F5F4FF"/>
</linearGradient>
</defs>
</svg>
